<?xml version="1.0" standalone="no"?>
<svg xmlns:xlink="http://www.w3.org/1999/xlink" id="wave" style="transform:rotate(0deg); transition: 0.3s" viewBox="0 0 1440 490" version="1.1" xmlns="http://www.w3.org/2000/svg"><defs><linearGradient id="sw-gradient-0" x1="0" x2="0" y1="1" y2="0"><stop stop-color="rgba(143, 212, 248, 1)" offset="0%"/><stop stop-color="rgba(250, 250, 250, 1)" offset="100%"/></linearGradient></defs><path style="transform:translate(0, 0px); opacity:1" fill="url(#sw-gradient-0)" d="M0,147L48,163.3C96,180,192,212,288,204.2C384,196,480,147,576,147C672,147,768,196,864,196C960,196,1056,147,1152,130.7C1248,114,1344,131,1440,114.3C1536,98,1632,49,1728,89.8C1824,131,1920,261,2016,269.5C2112,278,2208,163,2304,163.3C2400,163,2496,278,2592,294C2688,310,2784,229,2880,212.3C2976,196,3072,245,3168,228.7C3264,212,3360,131,3456,122.5C3552,114,3648,180,3744,171.5C3840,163,3936,82,4032,98C4128,114,4224,229,4320,302.2C4416,376,4512,408,4608,424.7C4704,441,4800,441,4896,400.2C4992,359,5088,278,5184,236.8C5280,196,5376,196,5472,179.7C5568,163,5664,131,5760,98C5856,65,5952,33,6048,73.5C6144,114,6240,229,6336,261.3C6432,294,6528,245,6624,196C6720,147,6816,98,6864,73.5L6912,49L6912,490L6864,490C6816,490,6720,490,6624,490C6528,490,6432,490,6336,490C6240,490,6144,490,6048,490C5952,490,5856,490,5760,490C5664,490,5568,490,5472,490C5376,490,5280,490,5184,490C5088,490,4992,490,4896,490C4800,490,4704,490,4608,490C4512,490,4416,490,4320,490C4224,490,4128,490,4032,490C3936,490,3840,490,3744,490C3648,490,3552,490,3456,490C3360,490,3264,490,3168,490C3072,490,2976,490,2880,490C2784,490,2688,490,2592,490C2496,490,2400,490,2304,490C2208,490,2112,490,2016,490C1920,490,1824,490,1728,490C1632,490,1536,490,1440,490C1344,490,1248,490,1152,490C1056,490,960,490,864,490C768,490,672,490,576,490C480,490,384,490,288,490C192,490,96,490,48,490L0,490Z"/></svg>